<svg width="32" height="33" viewBox="0 0 32 33" fill="none" xmlns="http://www.w3.org/2000/svg">
<path fill-rule="evenodd" clip-rule="evenodd" d="M14.0855 0.00817751C14.5573 0.0286736 15.2 0.0901617 15.5214 0.144818C15.8427 0.199474 16.3829 0.342946 16.7179 0.452259C17.2034 0.616227 18.1538 1.13546 21.1966 2.88446C23.3231 4.11422 25.388 5.30299 25.7915 5.52845C26.1949 5.76074 26.5299 5.95887 26.5299 5.97936C26.5299 5.99986 25.9624 6.34146 24 7.48241L20.0821 5.24151C17.2444 3.61548 16.0205 2.95278 15.6239 2.82297C15.3231 2.72049 14.8308 2.61118 14.5299 2.56335C14.1265 2.5087 13.8188 2.5087 13.3675 2.56335C13.0325 2.61118 12.5197 2.71366 12.2393 2.80247C11.9179 2.90495 11.159 3.28755 10.188 3.84777C9.34017 4.33285 7.56239 5.34399 3.82906 7.48241L2.68034 6.82653C2.05128 6.47127 1.47692 6.12967 1.40171 6.07501C1.3265 6.02719 1.27863 5.97253 1.29915 5.95887C1.31966 5.93837 1.62735 5.76074 1.98291 5.55578C2.33846 5.35082 3.07692 4.9204 3.62393 4.5993C4.17094 4.27819 5.44957 3.5335 6.46154 2.93911C7.4735 2.34473 8.75214 1.60004 9.29915 1.28577C9.84615 0.971492 10.4615 0.650387 10.6667 0.575235C10.8718 0.500083 11.3231 0.363443 11.6581 0.267794C11.9932 0.178978 12.4923 0.0764977 12.7521 0.0423376C13.012 0.00817751 13.6137 -0.0123186 14.0855 0.00817751ZM14.1197 5.12536C14.4205 5.13902 14.8513 5.21418 15.0769 5.2825C15.3368 5.35765 16.8068 6.17066 22.8376 9.66865V15.6125H25.2308L25.265 9.56617L26.4957 8.93763C27.1727 8.58919 27.747 8.30908 27.7744 8.30225C27.8085 8.30225 27.8291 9.9556 27.8291 15.6467L28.0137 15.6945C28.1231 15.715 28.3419 15.838 28.5128 15.9678C28.718 16.1181 28.8889 16.3299 29.2308 17.0131L29.265 23.2644H29.9624C30.5983 23.2644 30.7009 23.2849 31.0359 23.4488C31.241 23.5582 31.494 23.7494 31.6034 23.8793C31.706 24.0091 31.8427 24.255 31.8974 24.4258C31.9521 24.5966 32 24.8562 32 25.0065C32 25.1568 31.959 25.4165 31.8974 25.5873C31.8222 25.8332 31.2 26.5642 28.7726 29.297C26.3179 32.0572 25.6821 32.7336 25.4359 32.8497C25.2171 32.959 24.9983 33 24.6838 33C24.3692 33 24.1504 32.959 23.9316 32.8497C23.6855 32.7336 23.1521 32.1665 18.8718 27.3636L18.0308 27.8555C17.5727 28.1219 16.5949 28.6958 15.8632 29.1194C15.1316 29.5498 14.5231 29.8983 14.5094 29.8914C14.5026 29.8914 14.4957 29.2151 14.4957 26.8853L15.9316 26.045C17.3607 25.2115 17.3675 25.2115 17.3675 24.9724C17.3675 24.8426 17.4154 24.5966 17.4701 24.4258C17.5248 24.255 17.6615 24.0091 17.7641 23.8793C17.8735 23.7494 18.1265 23.5582 18.3316 23.4488C18.6667 23.2849 18.7692 23.2644 20.1026 23.2644V22.3762C20.1026 21.8911 20.0889 21.488 20.0684 21.488C20.0479 21.488 18.7487 22.2464 17.1761 23.1687C15.6103 24.091 14.2427 24.8904 14.1333 24.945C13.9556 25.0407 13.8872 25.0065 11.9111 23.8998C10.7966 23.278 9.4359 22.506 8.88889 22.1849C8.34188 21.8638 7.58974 21.4197 7.22051 21.1874C6.84444 20.9552 6.31111 20.5589 6.03077 20.2924C5.67521 19.9508 5.46325 19.6844 5.09402 18.926L5.05983 9.63449L6.78291 8.63019C7.73333 8.08362 9.36068 7.13397 10.3932 6.52592C11.4256 5.92471 12.4308 5.38498 12.6154 5.33032C12.8 5.27566 13.094 5.20051 13.265 5.15952C13.4359 5.12536 13.8188 5.1117 14.1197 5.12536ZM10.6803 9.50469L7.69231 11.0829L7.65812 18.3453C11.3915 20.5316 12.7932 21.3514 13.1829 21.57L13.8803 21.9663C15.3368 21.1396 16.7385 20.3334 17.9282 19.6366L20.0957 18.3795C20.1573 16.5758 20.1709 14.9361 20.1573 13.5697L20.1368 11.076C15.2889 8.55503 13.853 7.82401 13.8256 7.82401C13.7915 7.82401 13.7436 7.8445 13.7162 7.87183C13.6889 7.90599 12.3214 8.63702 10.6803 9.50469ZM21.935 21.0713C21.9487 24.1184 21.935 24.6171 21.8462 24.7469C21.7504 24.8972 21.7026 24.9041 20.7726 24.9041C19.9248 24.8972 19.7812 24.9177 19.6786 25.0202C19.6103 25.0885 19.5556 25.191 19.5556 25.2457C19.5556 25.3003 20.588 26.5437 21.8462 28.0126C23.1111 29.4747 24.2188 30.7454 24.3077 30.8274C24.4034 30.9162 24.5265 30.9846 24.5812 30.9846C24.6359 30.9846 25.8188 29.7548 27.2137 28.2517C28.9709 26.3593 29.7436 25.4711 29.7436 25.3618C29.7436 25.2798 29.7094 25.1705 29.6615 25.1227C29.6 25.0612 29.2991 25.0407 28.6359 25.0407C27.7812 25.0407 27.6786 25.027 27.5556 24.9041C27.4256 24.7743 27.4188 24.6786 27.4188 21.1601C27.4188 18.3453 27.4051 17.5391 27.3368 17.4708C27.2684 17.4093 26.6598 17.3888 24.6769 17.3888C22.7829 17.3888 22.0855 17.4093 22.0171 17.4708C21.935 17.5391 21.9214 18.1267 21.935 21.0713ZM0.0820513 8.30225C0.129915 8.30225 0.704273 8.5892 2.5641 9.56617L2.59829 13.8362C2.63248 17.9696 2.63932 18.1267 2.78974 18.6528C2.87179 18.9534 3.07692 19.4726 3.24786 19.8142C3.41197 20.149 3.71282 20.6136 3.91111 20.8458C4.1094 21.0781 4.43077 21.3992 4.61539 21.5632C4.80684 21.7272 5.15556 22.0073 5.40171 22.1849C5.64786 22.3625 6.70769 23.0048 7.76068 23.6265C8.81368 24.2414 10.3043 25.1159 11.0769 25.5668C11.8496 26.0177 12.6701 26.5028 13.3333 26.8853V28.3542C13.3333 29.4815 13.3128 29.8231 13.2513 29.8231C13.2034 29.8231 11.0701 28.6002 8.51282 27.104C5.52479 25.3618 3.67863 24.2414 3.35043 23.9749C3.07009 23.7426 2.5641 23.2712 2.22222 22.9159C1.88718 22.5607 1.4359 22.0278 1.23077 21.7272C1.02564 21.4266 0.717949 20.8732 0.540171 20.4974C0.362393 20.1216 0.17094 19.6161 0.109402 19.3701C0.0136752 18.9807 0 18.236 0 13.6107C0 9.52518 0.0205128 8.30225 0.0820513 8.30225ZM13.9145 10.3587C13.9556 10.3587 14.5231 10.673 15.1795 11.0624C15.8359 11.445 16.3761 11.7866 16.3692 11.8276C16.3624 11.8617 15.8222 12.2375 15.159 12.6542C14.4889 13.0778 13.9282 13.4263 13.9009 13.4263C13.8667 13.4263 13.2786 13.0915 12.588 12.6884C11.8974 12.2853 11.3299 11.9232 11.3299 11.8891C11.3299 11.8481 11.494 11.7251 11.6991 11.6089C11.9043 11.4928 12.4718 11.1649 12.9573 10.8779C13.4496 10.591 13.8735 10.3587 13.9145 10.3587ZM10.1333 13.9728C10.1812 13.9797 10.7692 14.2939 12.6427 15.3734L12.6496 16.8559C12.6496 18.0174 12.6291 18.3385 12.5675 18.318C12.5197 18.3043 11.9385 17.9832 10.0855 16.9311L10.065 15.4485C10.0513 14.2939 10.065 13.9728 10.1333 13.9728ZM17.6547 13.9728C17.6889 13.9728 17.7094 14.6424 17.7094 16.9448L16.5265 17.6075C15.8838 17.9696 15.2957 18.2838 15.2342 18.3043C15.1179 18.3453 15.1111 18.2497 15.1453 15.3939L16.3761 14.6834C17.053 14.2939 17.6273 13.9728 17.6615 13.9728H17.6547Z" fill="#767676" fill-opacity="0.98"/>
</svg>
