<svg width="32" height="32" viewBox="0 0 32 32" fill="none" xmlns="http://www.w3.org/2000/svg">
<path d="M3.33398 15.9987C3.33398 10.028 3.33398 7.04136 5.18865 5.1867C7.04332 3.33203 10.0287 3.33203 16.0007 3.33203C21.9713 3.33203 24.958 3.33203 26.8127 5.1867C28.6673 7.04136 28.6673 10.0267 28.6673 15.9987C28.6673 21.9694 28.6673 24.956 26.8127 26.8107C24.958 28.6654 21.9727 28.6654 16.0007 28.6654C10.03 28.6654 7.04332 28.6654 5.18865 26.8107C3.33398 24.956 3.33398 21.9707 3.33398 15.9987Z" stroke="white" stroke-linecap="round" stroke-linejoin="round"/>
<path d="M23.344 8.66406H23.3307M22 15.9974C22 17.5887 21.3679 19.1148 20.2426 20.24C19.1174 21.3653 17.5913 21.9974 16 21.9974C14.4087 21.9974 12.8826 21.3653 11.7574 20.24C10.6321 19.1148 10 17.5887 10 15.9974C10 14.4061 10.6321 12.88 11.7574 11.7548C12.8826 10.6295 14.4087 9.9974 16 9.9974C17.5913 9.9974 19.1174 10.6295 20.2426 11.7548C21.3679 12.88 22 14.4061 22 15.9974Z" stroke="white" stroke-linecap="round" stroke-linejoin="round"/>
</svg>
