<svg width="81" height="56" viewBox="0 0 81 56" fill="none" xmlns="http://www.w3.org/2000/svg">
<path d="M41.5541 3.34334C39.6123 2.28653 37.0048 1.11851 35.7842 0.729159C34.5637 0.339806 31.2904 0.00602168 28.5719 0.00602168C25.5205 -0.0496001 22.4137 0.284134 20.5274 0.840351C18.863 1.34095 15.9781 2.50903 14.2027 3.4546C12.3719 4.45579 9.54246 6.7363 7.71163 8.68306C5.82533 10.6854 3.71712 13.689 2.82945 15.6358C1.94178 17.5825 0.943153 20.4749 0.610275 22.0323C0.277397 23.6453 0 26.4264 0 28.1507C0 29.9306 0.388359 32.8785 0.887672 34.714C1.38699 36.5495 2.55206 39.5531 3.49521 41.333C4.49384 43.1685 6.60205 45.9496 8.15547 47.6183C9.76438 49.2313 12.15 51.178 13.426 51.9567C14.7575 52.6798 17.3096 53.8479 19.1404 54.4597C20.9712 55.0716 24.189 55.739 26.3527 55.9059C29.0158 56.1284 31.4568 55.9615 33.9534 55.3497C36.0616 54.8491 39.1685 53.7366 40.8884 52.8467C42.6637 51.9567 45.3267 50.1769 46.8247 48.8419C48.3226 47.507 50.5418 44.8372 54.0925 39.3863L54.2034 46.6171C54.3144 50.6219 54.4808 53.9035 54.6473 53.9035C54.8137 53.9035 56.2562 53.2361 57.8096 52.4574C59.4185 51.623 62.2479 49.4538 64.1342 47.5626C66.2979 45.3934 68.0733 42.8904 69.1829 40.5543C70.126 38.5519 71.1247 36.3271 71.4575 35.5484C71.9014 34.4915 72.0678 35.7708 72.1788 48.6195L74.1205 46.3946C75.1747 45.1709 76.8945 42.4454 77.9486 40.2762C79.0027 38.107 80.1678 34.9921 80.4452 33.3235C80.7781 31.6548 81 29.0962 81 27.5944C81 26.1483 80.7226 23.6453 80.3897 22.0323C80.0568 20.4749 78.9473 17.4157 77.8932 15.2464C76.8945 13.0772 75.1747 10.4629 72.1233 7.45937L72.0678 14.6902C72.0678 20.1967 71.9014 21.5873 71.4575 20.5305C71.1801 19.7518 70.2925 17.7494 69.5158 16.0807C68.739 14.4121 67.1856 11.7979 66.076 10.2961C64.9664 8.79429 62.5808 6.51379 60.75 5.17887C58.9192 3.89957 56.7555 2.56464 54.3699 1.61907L54.0925 16.9151L52.3726 13.8559C51.4295 12.1872 49.4322 9.51736 47.8788 8.01557C46.3253 6.45816 43.4959 4.40015 41.5541 3.34334Z" fill="#F94A23"/>
</svg>
