<svg width="23" height="23" viewBox="0 0 23 23" fill="none" xmlns="http://www.w3.org/2000/svg">
<path d="M16.0256 13.4743C15.7808 13.3485 14.5611 12.7511 14.3343 12.6702C14.1074 12.5849 13.9412 12.5444 13.7772 12.796C13.611 13.0453 13.1394 13.6001 12.9911 13.7686C12.8474 13.9348 12.7014 13.955 12.4565 13.8314C11.0011 13.1037 10.0465 12.5332 9.0874 10.8868C8.83359 10.4488 9.34121 10.4803 9.81514 9.53467C9.896 9.36846 9.85557 9.22695 9.79267 9.10117C9.72978 8.97539 9.23564 7.75801 9.029 7.26162C8.8291 6.77871 8.62246 6.84609 8.47197 6.83711C8.32822 6.82812 8.16426 6.82812 7.99805 6.82812C7.83184 6.82812 7.56455 6.89102 7.3377 7.13584C7.11084 7.38516 6.4707 7.98486 6.4707 9.20225C6.4707 10.4196 7.35791 11.5988 7.4792 11.765C7.60498 11.9313 9.22441 14.4289 11.7108 15.5048C13.2831 16.1831 13.8985 16.2415 14.6847 16.1247C15.1631 16.0528 16.1491 15.5272 16.3535 14.9455C16.5579 14.366 16.5579 13.8696 16.4973 13.7663C16.4366 13.6563 16.2704 13.5934 16.0256 13.4743Z" fill="white"/>
<path d="M20.781 7.60078C20.2734 6.39463 19.5456 5.31201 18.618 4.38213C17.6904 3.45449 16.6077 2.72451 15.3993 2.21914C14.164 1.70029 12.8523 1.4375 11.5001 1.4375H11.4552C10.0941 1.44424 8.77561 1.71377 7.53577 2.24385C6.3386 2.75596 5.26497 3.48369 4.34632 4.41133C3.42767 5.33896 2.70667 6.41709 2.20804 7.61875C1.69144 8.86309 1.43089 10.186 1.43763 11.5472C1.44437 13.106 1.81722 14.6535 2.51575 16.0371V19.4512C2.51575 20.0217 2.97845 20.4844 3.54896 20.4844H6.96526C8.34886 21.1829 9.89641 21.5558 11.4552 21.5625H11.5024C12.8478 21.5625 14.1528 21.302 15.3814 20.7921C16.583 20.2912 17.6634 19.5725 18.5888 18.6538C19.5164 17.7352 20.2464 16.6615 20.7563 15.4644C21.2864 14.2245 21.5559 12.9061 21.5626 11.5449C21.5694 10.1771 21.3043 8.84961 20.781 7.60078ZM17.3871 17.4387C15.8126 18.9975 13.7238 19.8555 11.5001 19.8555H11.4619C10.1075 19.8487 8.76214 19.5118 7.57395 18.8784L7.38528 18.7773H4.22278V15.6148L4.12171 15.4262C3.48831 14.238 3.1514 12.8926 3.14466 11.5382C3.13567 9.29883 3.99144 7.19648 5.56145 5.61299C7.12923 4.02949 9.22483 3.15352 11.4642 3.14453H11.5024C12.6254 3.14453 13.7148 3.3624 14.7412 3.79365C15.743 4.21367 16.6414 4.81787 17.4141 5.59053C18.1845 6.36094 18.7909 7.26162 19.211 8.26338C19.6467 9.30107 19.8646 10.4017 19.8601 11.5382C19.8466 13.7753 18.9684 15.8709 17.3871 17.4387Z" fill="white"/>
</svg>
