<svg width="32" height="32" viewBox="0 0 32 32" fill="none" xmlns="http://www.w3.org/2000/svg">
<path d="M3.33398 15.9987C3.33398 10.028 3.33398 7.04136 5.18865 5.1867C7.04332 3.33203 10.0287 3.33203 16.0007 3.33203C21.9713 3.33203 24.958 3.33203 26.8127 5.1867C28.6673 7.04136 28.6673 10.0267 28.6673 15.9987C28.6673 21.9694 28.6673 24.956 26.8127 26.8107C24.958 28.6654 21.9727 28.6654 16.0007 28.6654C10.03 28.6654 7.04332 28.6654 5.18865 26.8107C3.33398 24.956 3.33398 21.9707 3.33398 15.9987Z" stroke="white" stroke-linecap="round" stroke-linejoin="round"/>
<path d="M21.1529 16.5603C20.9371 17.4441 19.785 18.077 17.4823 19.3472C14.9769 20.7282 13.7242 21.418 12.7106 21.1512C12.3729 21.0639 12.0573 20.9064 11.7846 20.6889C11 20.0545 11 18.7376 11 16.1039C11 13.4701 11 12.1532 11.7846 11.5189C12.05 11.3045 12.3679 11.1455 12.7106 11.0566C13.7242 10.7897 14.9769 11.4795 17.4823 12.8605C19.7865 14.1293 20.9371 14.7637 21.1529 15.6474C21.2258 15.9478 21.2258 16.2599 21.1529 16.5603Z" stroke="white" stroke-linecap="round" stroke-linejoin="round"/>
</svg>
