<svg width="167" height="21" viewBox="0 0 167 21" fill="none" xmlns="http://www.w3.org/2000/svg">
<path d="M11.142 12.2774C10.8981 12.8659 10.4873 14.099 10.1262 15.2236C9.75739 14.0807 9.34288 12.8353 9.11542 12.2774L4.25073 0.522727L4.19104 0.379883H0L8.27109 20.507H12.0247L20.2958 0.379883H16.0663L11.142 12.2774Z" fill="black"/>
<path d="M27.3026 12.6645C28.4507 12.0198 31.6067 11.8853 34.8934 11.8462V14.0014C34.0148 15.5865 32.1433 17.2611 29.4828 17.2611C27.1449 17.2611 26.3155 15.8416 26.3155 14.6263C26.3155 13.7769 26.6956 13.0248 27.3026 12.6645ZM38.8242 14.0554V7.25026C38.8242 2.30369 36.2183 0 30.6235 0C27.8749 0 24.9429 0.781182 23.382 1.50759L22.863 1.74852L23.834 5.20515L24.5391 4.90308C25.9736 4.28822 28.4891 3.62659 30.6235 3.62659C33.8158 3.62659 34.8934 4.54133 34.8934 7.25026V8.40812C29.46 8.46853 26.8776 8.78915 25.4069 9.58162C23.5148 10.5711 22.3846 12.4711 22.3846 14.6639C22.3846 17.7623 24.5562 20.8877 29.4067 20.8877C32.0516 20.8877 34.3311 19.7561 35.5978 17.8391C36.298 19.2529 37.4849 20.253 39.0659 20.7463L40.0745 21L41.6674 17.7559L40.2919 17.0359C39.3857 16.554 38.8242 15.8871 38.8242 14.0554Z" fill="black"/>
<path d="M57.3272 9.42021L57.3258 9.41949C56.2667 8.90925 54.7173 8.54023 52.4525 8.25745C50.4709 7.97377 49.3733 7.72083 48.7799 7.40876C48.2673 7.15273 47.9738 6.66524 47.9738 6.07167C47.9738 4.54061 49.4985 3.62659 52.0531 3.62659C54.8345 3.62659 56.8617 4.53278 57.4175 4.80992L58.0935 5.14837L59.3587 1.65407L58.8015 1.39386C57.9037 0.97443 55.4572 0 52.1292 0C49.6228 0 47.538 0.621234 46.1008 1.79546C44.7737 2.88016 44.0429 4.39849 44.0429 6.07167C44.0429 7.87641 44.8349 9.41311 46.2145 10.2875C47.3611 11.0246 49.1182 11.5157 51.7459 11.8342C53.5734 12.0496 54.5637 12.2578 55.2759 12.5784C56.0322 12.9167 56.399 13.4748 56.399 14.2836C56.399 16.0926 54.6782 17.2604 52.0154 17.2604C49.2028 17.2604 46.8372 16.3102 45.8264 15.9042L45.056 15.5965L43.9336 19.0823L44.4609 19.3374C45.7489 19.9608 48.8239 20.8877 52.0154 20.8877C54.5288 20.8877 56.6512 20.211 58.1546 18.9309C59.5578 17.7353 60.3297 16.0847 60.3297 14.2836C60.3297 12.0944 59.2635 10.3672 57.3272 9.42021Z" fill="black"/>
<path d="M79.4046 10.4822C79.4046 14.4094 76.7127 17.2604 73.0052 17.2604C68.8043 17.2604 66.6065 13.8507 66.6065 10.4822C66.6065 6.44561 69.2379 3.62714 73.0052 3.62714C76.7731 3.62714 79.4046 6.44561 79.4046 10.4822ZM73.0052 0C66.9761 0 62.5996 4.40831 62.5996 10.4822C62.5996 13.43 63.6437 16.0926 65.5402 17.9785C67.4266 19.8542 70.0781 20.8877 73.0052 20.8877C76.0793 20.8877 78.7151 19.8229 80.627 17.8078C82.4227 15.9149 83.4113 13.3134 83.4113 10.4822C83.4113 4.40831 79.0348 0 73.0052 0Z" fill="black"/>
<path d="M126.426 15.1905C124.595 16.5638 122.671 17.2604 120.709 17.2604C116.768 17.2604 114.12 14.5062 114.12 10.4061C114.12 6.41431 116.924 3.62659 120.938 3.62659C122.679 3.62659 124.273 4.16885 125.953 5.33179L126.576 5.76397L128.264 2.57027L127.804 2.22545C125.836 0.749157 123.525 0 120.938 0C114.767 0 110.113 4.47382 110.113 10.4061C110.113 13.3127 111.144 15.9619 113.015 17.864C114.962 19.8421 117.622 20.8877 120.709 20.8877C124.096 20.8877 126.903 19.3978 128.277 18.1227L128.652 17.7737L127.061 14.7143L126.426 15.1905Z" fill="black"/>
<path d="M147.264 10.4822C147.264 14.4094 144.573 17.2604 140.865 17.2604C136.664 17.2604 134.467 13.8507 134.467 10.4822C134.467 6.44561 137.097 3.62714 140.865 3.62714C144.633 3.62714 147.264 6.44561 147.264 10.4822ZM140.865 0C134.836 0 130.46 4.40831 130.46 10.4822C130.46 13.4306 131.504 16.0926 133.4 17.9785C135.287 19.8542 137.938 20.8877 140.865 20.8877C143.94 20.8877 146.575 19.8229 148.487 17.8078C150.282 15.9157 151.272 13.3141 151.272 10.4822C151.272 4.40831 146.895 0 140.865 0Z" fill="black"/>
<path d="M166.297 0.474752C166.253 0.455645 165.2 0 163.708 0C161.253 0 159.505 1.00009 158.107 3.22499L157.527 0.380309H154.518V20.5074H158.449V7.98305C159.053 6.43634 160.533 3.89299 163.745 3.89299C164.369 3.89299 164.942 4.03601 165.286 4.1219C165.412 4.15393 165.511 4.1774 165.574 4.18796L166.255 4.30114L166.764 0.680191L166.297 0.474752Z" fill="black"/>
<path d="M97.0171 15.2934C96.6481 16.0013 95.1207 16.9218 93.5576 17.1031C92.6534 17.2068 91.4344 17.1067 90.7769 16.0247C90.4727 15.5236 90.3184 14.9877 90.3056 14.3878C90.2907 13.6471 90.4918 12.9904 90.9041 12.436C91.2823 11.9248 91.9504 11.3931 92.603 11.0791L97.0171 15.2934ZM102.086 14.9921C103.807 13.3302 105.165 13.0629 106.272 13.0252L106.491 13.0174L106.496 12.7992C106.51 12.2134 106.535 9.99855 106.533 9.37386L106.533 9.17479L106.336 9.14567C103.301 8.6964 100.29 11.2745 99.2184 12.3108L94.2392 7.655C93.4786 6.80558 93.0777 5.98255 93.0486 5.20847C93.033 4.79195 93.141 4.46859 93.3798 4.22112C93.7787 3.80678 94.5513 3.59698 95.6778 3.59698C96.8564 3.59698 98.0576 3.85864 99.2462 4.37543L99.4786 4.47642L99.5581 4.23604C99.6911 3.83663 100.322 1.6665 100.454 1.13552L100.505 0.932261L100.307 0.861841C98.6932 0.285372 96.6332 0.0273438 95.3068 0.0273438C93.9342 0.0273438 92.7636 0.234965 91.8289 0.645117C90.8757 1.06164 90.1513 1.65722 89.6744 2.4142C89.1926 3.17336 88.9565 4.06972 88.9735 5.07836C88.9842 5.68959 89.0979 6.32228 89.3127 6.95843C89.5044 7.52435 89.8223 8.12848 90.2572 8.75754C88.8499 9.33328 87.8036 10.1159 87.144 11.084C86.4318 12.1183 86.0706 13.3273 86.0706 14.6778C86.0706 15.9195 86.4132 17.0419 87.0899 18.0165C87.8547 19.1076 88.835 19.8788 90.0021 20.3088C91.0477 20.6942 92.0955 20.8639 93.1041 20.8639C95.8896 20.8639 98.3819 19.564 99.7415 17.8935L101.967 20.0182C102.287 20.3229 102.707 20.4915 103.149 20.4915H108.032V18.2538H105.574L102.086 14.9921Z" fill="black"/>
</svg>
