<svg width="141" height="73" viewBox="0 0 141 73" fill="none" xmlns="http://www.w3.org/2000/svg">
<path d="M11.4961 65.2262C11.4968 65.1118 11.84 65.0662 12.2295 65.1119C12.9179 65.1808 12.9645 65.2495 13.7676 67.6588C14.2035 69.0125 14.6167 70.1139 14.6855 70.1139C14.7557 70.1093 15.168 69.0097 15.626 67.6588C16.3373 65.479 16.4981 65.1808 17.0029 65.1119C17.3011 65.0661 17.6226 65.1344 17.7373 65.2262C17.8289 65.3184 17.3466 66.9256 15.4883 72.1793H13.8818L12.6885 68.7828C12.0231 66.9244 11.4732 65.318 11.4961 65.2262ZM30.8613 65.1803L31.9404 68.1178C32.5597 69.7233 33.0636 71.2601 33.0869 71.5592C33.1328 71.9491 33.0187 72.0875 32.583 72.1334C32.1012 72.2022 31.9399 72.0639 31.5957 71.2838C31.2058 70.3664 31.1826 70.3434 28.7969 70.3434L28.498 71.2613C28.2686 72.0643 28.1307 72.1793 27.5342 72.1793C27.1443 72.1793 26.8467 72.1099 26.8467 72.0182C26.8474 71.9015 27.3741 70.2963 28.0391 68.4391L29.21 65.0426L30.8613 65.1803ZM46.2354 64.9283C46.8776 64.9972 47.3366 65.2494 47.7725 65.7311C48.3002 66.3276 48.3686 66.5114 48.1162 66.7867C47.9785 66.9932 47.7954 67.1539 47.7266 67.1539C47.6576 67.1538 47.3592 66.9248 47.0381 66.6725C46.7169 66.4201 46.2812 66.1442 46.0518 66.0983C45.8453 66.0294 45.4091 66.1442 45.0879 66.3277C44.7667 66.5113 44.5371 66.8561 44.583 67.0856C44.6141 67.3455 45.1266 67.651 46.1201 68.0025C46.9457 68.2778 47.7944 68.691 48.0244 68.9205C48.2539 69.127 48.438 69.632 48.415 70.068C48.415 70.4581 48.3462 70.963 48.2314 71.1695C48.1396 71.376 47.7957 71.6974 47.4287 71.858C47.0846 72.0416 46.35 72.1793 45.7764 72.1793C45.2028 72.1793 44.4229 72.0181 44.0557 71.8346C43.6885 71.651 43.2749 71.2149 43.1602 70.8707C43.0227 70.5039 42.9997 70.1599 43.0684 70.068C43.1601 69.9533 43.4131 69.8844 43.6426 69.8844C43.872 69.8846 44.2623 70.1366 44.5146 70.4576C44.8358 70.8476 45.2024 71.0318 45.707 71.0318C46.12 71.0548 46.6026 70.8936 46.7402 70.6871C46.9006 70.5036 47.0153 70.1601 46.9697 69.9537C46.9468 69.6784 46.4183 69.3799 45.4316 69.0358C44.6057 68.7604 43.7568 68.2779 43.5273 68.0025C43.298 67.7043 43.1143 67.2685 43.1143 67.0162C43.1372 66.7638 43.2984 66.3047 43.5049 66.0065C43.7115 65.7311 44.1936 65.3413 44.6064 65.1578C44.9966 64.9744 45.7077 64.8825 46.2354 64.9283ZM60.8281 64.9967C61.1264 64.9279 61.7696 64.9283 62.2285 64.9742C62.7103 65.0202 63.3067 65.2033 63.582 65.3639C63.8344 65.5015 64.2246 65.9606 64.4541 66.3277C64.6836 66.6949 64.9356 67.4064 65.0273 67.8883C65.0962 68.3472 65.0508 69.1736 64.9131 69.7242C64.7524 70.252 64.3163 71.009 63.9033 71.4449C63.2379 72.0874 62.9852 72.1793 61.9756 72.1793C61.2873 72.1793 60.5302 72.0181 60.1172 71.7887C59.7271 71.5592 59.1992 70.9624 58.9697 70.4576C58.7175 69.9529 58.5108 69.2193 58.5107 68.8522C58.5107 68.4851 58.5801 67.7969 58.6719 67.3609C58.7637 66.925 59.1539 66.2359 59.5439 65.8229C59.9568 65.433 60.5069 65.0428 60.8281 64.9967ZM76.7529 65.0885C77.0055 64.951 77.5334 64.882 77.9004 64.9508C78.2673 65.0197 78.7715 65.2953 79.001 65.5934C79.2304 65.8687 79.4141 66.3512 79.4141 66.6725C79.4139 66.9937 79.1385 67.5213 78.8174 67.8883C78.2898 68.4617 78.2667 68.554 78.5879 69.0816C78.7715 69.4029 79.0244 69.6549 79.1621 69.6549C79.2768 69.6547 79.4371 69.4482 79.5059 69.1959C79.5824 68.8901 79.812 68.737 80.1943 68.7369C80.5156 68.7369 80.7686 68.8751 80.7686 69.0358C80.7684 69.1738 80.6302 69.7012 80.4697 70.1598C80.2632 70.8252 80.2632 71.0778 80.4697 71.3531C80.6303 71.5596 80.7221 71.8351 80.6533 71.9498C80.5844 72.0873 80.3322 72.1792 80.0801 72.1793C79.8277 72.1793 79.5748 72.0874 79.5059 71.9498C79.4294 71.7968 79.2385 71.7969 78.9326 71.9498C78.6803 72.0875 78.0379 72.1793 77.4873 72.1793C76.8907 72.2022 76.3163 72.0416 75.9492 71.7662C75.628 71.5367 75.3071 71.0542 75.1924 70.733C75.1008 70.3432 75.1463 69.8846 75.3525 69.4947C75.5131 69.1278 75.8345 68.7146 76.041 68.5768C76.3623 68.3014 76.3627 68.232 76.0645 67.7731C75.881 67.4749 75.7198 66.9936 75.7197 66.6725C75.7197 66.3512 75.8345 65.9376 75.9951 65.7311C76.1557 65.5246 76.5005 65.2262 76.7529 65.0885ZM94.0078 64.8365C94.3061 64.8366 94.8795 64.9738 95.2695 65.1344C95.6825 65.3179 96.2564 65.7546 96.5547 66.1217C96.83 66.4888 97.0825 66.925 97.0596 67.0856C97.059 67.2231 96.8063 67.3609 96.4854 67.3609C96.1641 67.3607 95.66 67.1078 95.3389 66.7867C94.9717 66.4196 94.5121 66.2135 94.0762 66.2135C93.6174 66.2136 93.1586 66.4197 92.8145 66.7867C92.3326 67.2456 92.2412 67.5901 92.2412 68.6227C92.2412 69.6549 92.3328 69.976 92.8145 70.4576C93.1815 70.8247 93.6403 71.0317 94.0762 71.0318C94.558 71.0318 94.9717 70.8252 95.3848 70.3434C95.7517 69.9536 96.2559 69.6552 96.5312 69.6549C96.8295 69.6549 97.0594 69.7697 97.0596 69.8844C97.0596 70.0221 96.8984 70.4352 96.7148 70.8024C96.5312 71.1694 96.0497 71.651 95.6826 71.8346C95.3155 72.0181 94.5585 72.1793 94.0078 72.1793C93.4801 72.1793 92.7226 71.9957 92.3555 71.7662C91.9884 71.5368 91.4839 70.9399 91.2314 70.4352C90.9332 69.7927 90.8179 69.1728 90.8867 68.232C90.9556 67.4062 91.1397 66.7178 91.4609 66.2818C91.7134 65.9377 92.2868 65.4561 92.7227 65.2496C93.1586 65.0202 93.7325 64.8365 94.0078 64.8365ZM125.994 65.066C127.6 65.066 127.898 65.1347 128.518 65.6393C129.091 66.1211 129.206 66.3738 129.206 67.2457C129.206 68.0488 129.068 68.4158 128.059 69.4254L128.747 70.6188C129.114 71.2842 129.366 71.9039 129.274 71.9957C129.182 72.1102 128.885 72.1792 128.587 72.1793C128.174 72.1793 127.875 71.8807 127.302 70.8483C126.774 69.9763 126.383 69.5406 126.085 69.5406C125.741 69.5408 125.627 69.7242 125.581 70.3434C125.558 70.7792 125.466 71.3755 125.42 71.651C125.328 72.041 125.145 72.1793 124.158 72.1793V65.066H125.994ZM109.564 64.9967C109.817 64.9279 110.437 64.9054 110.941 64.9742C111.63 65.0431 112.066 65.2956 112.686 65.9381C113.236 66.5115 113.558 67.085 113.649 67.7731C113.741 68.3008 113.695 69.1501 113.58 69.6549C113.465 70.1597 113.075 70.8937 112.708 71.2838C112.203 71.8803 111.859 72.0182 110.827 72.11C109.864 72.2017 109.381 72.1333 108.808 71.8121C108.372 71.5597 107.844 70.9854 107.614 70.4576C107.362 69.9528 107.155 69.1498 107.155 68.691C107.155 68.2092 107.339 67.3837 107.546 66.8561C107.775 66.3513 108.211 65.7315 108.532 65.525C108.853 65.2956 109.312 65.0656 109.564 64.9967ZM77.1885 69.4488C77.0737 69.426 76.8212 69.5412 76.6377 69.7018C76.4543 69.8624 76.3394 70.1145 76.3623 70.275C76.3853 70.4356 76.6612 70.734 76.9824 70.9176C77.3953 71.1698 77.6705 71.1924 78.0146 71.0318C78.4733 70.8025 78.473 70.8026 77.9453 70.1373C77.67 69.7474 77.3261 69.4488 77.1885 69.4488ZM61.8379 66.2369C61.4708 66.2369 61.0117 66.3058 60.874 66.3746C60.7133 66.4438 60.4149 66.788 60.2314 67.1549C60.048 67.5222 59.8877 68.2333 59.8877 68.7379C59.8877 69.3803 60.0709 69.8625 60.4609 70.3443C60.8433 70.8032 61.2494 71.0318 61.6777 71.0318C62.0218 71.0317 62.526 70.8715 62.8242 70.6881C63.0995 70.5046 63.4443 69.9541 63.582 69.4723C63.7197 69.0134 63.7651 68.3013 63.6963 67.9342C63.6044 67.5671 63.3065 67.0165 63.0312 66.7184C62.71 66.3972 62.2738 66.214 61.8379 66.2369ZM110.482 66.2369C110.115 66.2369 109.656 66.3058 109.519 66.3746C109.358 66.4437 109.059 66.788 108.876 67.1549C108.693 67.5221 108.532 68.2333 108.532 68.7379C108.532 69.3803 108.715 69.8625 109.105 70.3443C109.488 70.8032 109.894 71.0318 110.322 71.0318C110.666 71.0317 111.171 70.8715 111.469 70.6881C111.744 70.5046 112.089 69.9541 112.227 69.4723C112.364 69.0134 112.41 68.3013 112.341 67.9342C112.249 67.5671 111.951 67.0165 111.676 66.7184C111.355 66.3971 110.918 66.214 110.482 66.2369ZM30.0586 67.1315C29.921 67.1315 29.7378 67.3611 29.623 67.6363C29.5084 67.9345 29.3701 68.3932 29.2783 68.6686C29.1636 69.1504 29.2096 69.1969 30.0586 69.1969H30.9766C30.4489 67.591 30.1734 67.1316 30.0586 67.1315ZM125.512 66.2135V67.3609C125.512 68.4623 125.535 68.5084 126.154 68.5084C126.498 68.5084 127.003 68.3472 127.302 68.1637C127.577 67.9801 127.806 67.5907 127.807 67.2926C127.807 67.0173 127.692 66.6495 127.531 66.4889C127.371 66.3283 126.843 66.2135 126.384 66.2135H125.512ZM77.4639 65.984C77.4179 65.9841 77.2577 66.1452 77.1201 66.3287C76.9366 66.5581 76.9361 66.8103 77.0967 67.1315C77.2343 67.3838 77.418 67.5904 77.5098 67.5904C77.6015 67.5904 77.8081 67.4527 77.9688 67.315C78.1292 67.1545 78.2665 66.8565 78.3125 66.65C78.3354 66.4435 78.1748 66.1905 77.9453 66.1217C77.7389 66.0529 77.5097 65.984 77.4639 65.984ZM62.9854 0.152941C63.8802 0.0152786 65.9451 -0.030633 67.5742 0.0152461C69.2033 0.0840825 71.5441 0.290667 72.7373 0.47423C73.9305 0.680743 75.7204 1.04849 76.707 1.27794C77.6704 1.53028 78.7254 1.87413 79.0469 2.03478C79.3679 2.17238 79.6208 2.47033 79.6211 2.65392C79.6211 2.83748 79.0927 4.8115 78.4502 7.01427C77.831 9.21591 77.2812 11.0509 77.2578 11.0983C77.2349 11.1441 76.1334 10.7998 74.8027 10.3639C73.4719 9.92791 71.5208 9.44637 70.4424 9.28575C69.3639 9.1481 67.551 9.05579 66.4268 9.12462C64.8667 9.21641 64.0403 9.40013 63.0537 9.859C62.1133 10.2719 61.6083 10.662 61.333 11.2125C61.1265 11.6026 60.9658 12.4065 60.9658 12.9801C60.9659 13.5537 61.1041 14.4256 61.2646 14.9303C61.4253 15.4352 61.8839 16.4217 62.2969 17.11C62.7329 17.7984 64.0871 19.3582 65.3262 20.5514C66.5652 21.7446 69.5253 24.5439 71.8887 26.7467C74.2749 28.9494 76.294 30.7858 76.4316 30.8317C76.5473 30.8536 77.2811 30.3031 78.0605 29.5924C78.8636 28.9041 80.4924 27.665 81.6855 26.8619C82.8787 26.0588 84.5543 25.0718 85.4033 24.7047C86.2752 24.3147 87.7204 23.7872 88.6152 23.5348C89.5331 23.2824 91.1628 23.0294 92.2412 22.9606C93.3195 22.8917 94.1909 22.7999 94.2139 22.777C94.2153 22.7472 94.3523 22.0615 94.4893 21.2399C94.627 20.4138 95.0172 18.9222 95.3613 17.9127C95.7055 16.9031 96.4166 15.2049 96.9443 14.1266C97.495 13.0481 98.3907 11.5566 98.9414 10.7994C99.4923 10.0421 100.731 8.66576 101.672 7.72521C102.59 6.80744 103.989 5.59132 104.746 5.04064C105.503 4.51296 107.04 3.59523 108.188 2.99864C109.335 2.42501 111.171 1.66753 112.318 1.3004C113.466 0.933306 115.094 0.497163 115.989 0.336535C116.999 0.130026 119.11 0.0152461 121.611 0.0152461C124.64 0.0381948 126.109 0.130542 127.577 0.45177C128.656 0.681228 130.193 1.11688 131.019 1.3922C131.845 1.69047 133.015 2.14957 133.657 2.44786C134.277 2.72321 135.631 3.45773 136.641 4.05431C137.65 4.65084 138.82 5.43064 140.036 6.44005L135.723 14.5397L133.887 13.3238C132.877 12.6584 131.34 11.7403 130.445 11.3043C129.55 10.8683 128.127 10.2725 127.232 10.0201C126.338 9.74479 124.754 9.42342 123.676 9.28575C122.597 9.14814 120.9 9.12516 119.891 9.19396C118.881 9.28574 117.343 9.53774 116.448 9.7672C115.553 9.99665 114.268 10.4553 113.58 10.7994C112.892 11.1436 111.699 11.8552 110.941 12.4059C110.184 12.9336 109.014 13.989 108.349 14.7233C107.614 15.5263 106.72 16.9032 106.123 18.1422C105.572 19.2665 104.953 20.9421 104.724 21.8141C104.425 22.9613 104.311 24.2462 104.311 26.4029C104.311 28.7662 104.425 29.7992 104.838 31.3365C105.136 32.415 105.756 34.0668 106.237 35.0074C106.719 35.9482 107.5 37.2561 108.005 37.8756C108.487 38.5181 109.565 39.5276 110.391 40.1471C111.194 40.7436 112.456 41.5465 113.167 41.9137C113.901 42.2808 115.347 42.7863 116.38 43.0387C117.71 43.3598 119.087 43.4967 120.854 43.4967C122.276 43.4967 124.135 43.3599 124.984 43.1764C125.856 42.9928 127.049 42.671 127.691 42.4645C128.311 42.258 129.757 41.6387 130.904 41.0651C132.052 40.4914 133.818 39.4125 134.851 38.6783C135.906 37.9212 136.824 37.3024 136.916 37.3024C137.032 37.3055 137.974 39.0051 141 44.8277L140.427 45.4479C140.106 45.792 139.233 46.549 138.476 47.1227C137.718 47.7192 136.273 48.614 135.264 49.1647C134.254 49.6923 132.511 50.4953 131.363 50.9313C130.216 51.3672 128.265 51.9181 127.003 52.1705C125.741 52.4229 123.791 52.6979 122.644 52.7897C121.496 52.8585 119.431 52.8126 118.055 52.6979C116.678 52.5602 114.544 52.2169 113.351 51.9186C112.157 51.5973 110.345 51 109.335 50.5641C108.325 50.151 106.582 49.1879 105.435 48.4537C104.287 47.7195 102.544 46.2734 101.534 45.2408C100.502 44.2312 99.2621 42.7627 98.7344 42.0055C98.2296 41.2482 97.3573 39.7567 96.8525 38.6783C96.3248 37.5999 95.6371 35.8787 95.3389 34.8463L95.3232 34.7955C94.7652 32.9649 94.7579 32.942 94.0078 32.942C93.6178 32.942 92.6082 33.1027 91.7822 33.2633C90.9562 33.4469 89.7167 33.8371 89.0283 34.1354C88.3399 34.4566 86.9177 35.3518 85.8623 36.109C84.8298 36.8891 83.9805 37.692 83.9805 37.8756C83.9805 38.0592 84.1641 38.3576 84.3936 38.5182C84.6464 38.6563 86.275 40.1476 88.0186 41.7994C89.7624 43.4744 91.5294 45.0807 91.8965 45.402C92.5389 45.9526 92.7458 45.9987 98.7803 46.1363L98.8955 51.7574H92.126C86.298 51.7574 85.2426 51.7115 84.623 51.3902C84.21 51.1837 82.489 49.7382 77.7852 45.3326L77.0283 46.1822C76.6382 46.6411 75.6287 47.513 74.8027 48.1324C73.9767 48.752 72.4388 49.7155 71.3604 50.2662C70.2819 50.8169 68.469 51.551 67.3447 51.8951C65.647 52.3999 64.6833 52.5148 61.9531 52.6295C59.3606 52.6983 58.1899 52.6528 56.6758 52.3317C55.5975 52.1252 54.1059 51.7115 53.3486 51.4361C52.5915 51.1838 51.3524 50.5869 50.6182 50.151C49.8839 49.715 48.6214 48.7056 47.8184 47.9254C47.0153 47.1223 45.9364 45.8373 45.4316 45.0572C44.9039 44.2541 44.2157 42.7854 43.8945 41.776C43.3669 40.1931 43.2754 39.5505 43.2754 37.0729C43.2754 35.0078 43.3902 33.791 43.6885 32.7125C43.918 31.8865 44.4 30.6014 44.79 29.8443C45.1572 29.0872 45.8913 27.9174 46.4189 27.2291C46.9467 26.5637 47.9562 25.5542 48.6445 25.0035C49.3329 24.4299 50.7329 23.558 53.5781 22.0895L52.3848 19.6568C51.6046 18.0966 51.0537 16.582 50.8242 15.4576C50.6407 14.471 50.4805 13.186 50.4805 12.5895C50.4805 11.97 50.5948 10.8691 50.7324 10.1119C50.8701 9.35475 51.3287 7.97751 51.7646 7.08263C52.2694 6.00419 52.9816 4.97167 53.7617 4.21446C54.4501 3.52612 55.7811 2.5854 56.8135 2.03478C57.8001 1.50708 59.2458 0.933648 60.0029 0.72716C60.7602 0.543596 62.0906 0.26765 62.9854 0.152941ZM12.8262 6.48595C14.1341 9.60653 15.9474 13.9892 16.8652 16.192C17.783 18.3947 19.6643 22.9377 21.041 26.2877C22.4407 29.6377 23.9317 33.5389 24.3906 34.9615C24.8723 36.3607 25.3543 37.507 25.4922 37.485C25.6299 37.4391 26.2731 35.9251 26.9385 34.0895C27.6039 32.2538 28.8429 29.1106 29.6689 27.0914C30.495 25.0722 32.1921 20.9415 33.4541 17.9127C34.716 14.884 36.7355 9.97426 37.9746 7.01427C39.1902 4.05551 40.2917 1.44043 40.4072 1.23204C40.5908 0.864924 41.0953 0.818959 45.8906 0.818957C48.7818 0.818957 51.168 0.887823 51.168 1.00255C51.1642 1.10331 49.9266 4.21979 48.3916 7.93126C46.8773 11.6482 44.7211 16.9257 43.5967 19.6334C42.4953 22.341 40.4988 27.2062 39.168 30.4186C37.8371 33.6309 35.5656 39.1604 34.1201 42.694C32.6747 46.2273 31.2286 49.6917 30.9531 50.3805C30.6548 51.0688 30.3105 51.7115 30.1729 51.8033C30.0555 51.8951 27.9687 51.9869 25.584 51.9869C23.1978 51.9869 21.1098 51.8951 20.9492 51.8033C20.7885 51.7111 19.8474 49.6235 18.8379 47.1686C17.8283 44.7135 15.7639 39.6425 14.2266 35.9254C12.6892 32.2082 10.3938 26.6324 9.13184 23.5348C7.8699 20.4373 5.87434 15.5959 4.7041 12.7506C3.5339 9.9054 1.99648 6.1649 1.28516 4.44396C0.574574 2.70188 0.00117141 1.18879 0 1.04845C0 0.910776 1.90471 0.818465 10.4404 0.795519L12.8262 6.48595ZM59.7041 28.1246C59.6123 28.1246 58.9007 28.5139 58.1436 28.9957C57.4093 29.4776 56.4457 30.281 56.0098 30.7858C55.5738 31.2676 54.9545 32.2546 54.6562 32.943C54.335 33.6314 54.0366 34.8245 53.9678 35.5817C53.899 36.4993 53.9904 37.417 54.2656 38.3346C54.4951 39.0918 54.9087 40.1022 55.207 40.5611C55.5054 41.043 56.1936 41.7537 56.7441 42.1207C57.2719 42.5108 58.2584 42.9244 58.9697 43.0621C59.658 43.2227 60.966 43.2686 61.8379 43.1998C62.7328 43.108 64.1788 42.8096 65.0508 42.5113C65.9456 42.213 67.1159 41.708 67.6895 41.3639C68.263 41.0427 69.1574 40.4004 69.708 39.9645C70.2358 39.5056 70.6719 38.9771 70.6719 38.7936C70.669 38.6074 68.2384 36.1302 65.2803 33.2867C62.3203 30.4415 59.7959 28.1246 59.7041 28.1246Z" fill="#FFFEF7"/>
</svg>
